<svg xmlns="http://www.w3.org/2000/svg" width="317.44" height="317.44" viewBox="0 0 317.44 317.44"><title>shop-clock</title><path d="M187,19.28C99.5,19.28,28.28,90.5,28.28,178S99.5,336.72,187,336.72,345.72,265.5,345.72,178,274.5,19.28,187,19.28Zm0,297c-76.24,0-138.24-62-138.24-138.24S110.76,39.76,187,39.76s138.24,62,138.24,138.24S263.24,316.24,187,316.24Z" transform="translate(-28.28 -19.28)"/><path d="M233.08,172.88H187V101.2a10.24,10.24,0,0,0-20.48,0v81.92a10.27,10.27,0,0,0,10.24,10.24h56.32a10.24,10.24,0,0,0,0-20.48Z" transform="translate(-28.28 -19.28)"/></svg>