<svg xmlns="http://www.w3.org/2000/svg" width="431.53" height="135.76" viewBox="0 0 431.53 135.76"><defs><style>.a,.d{fill:#fff;}.b{fill:#e81c2e;}.c{fill:#19191b;}.d{font-size:76px;font-family:CalSans-Regular, Cal Sans;letter-spacing:-0.06em;}.e{letter-spacing:-0.01em;}.f{letter-spacing:0em;}.g{letter-spacing:-0.03em;}.h{letter-spacing:-0.01em;}</style></defs><title>logo-white</title><path class="a" d="M133.67,112.21a4.4,4.4,0,0,1-8.8,0,4.45,4.45,0,0,1,4.4-4.41A4.32,4.32,0,0,1,133.67,112.21Z"/><path class="a" d="M120.31,125.33a4.4,4.4,0,0,1-4.4,4.41,4.41,4.41,0,0,1,0-8.81A4.39,4.39,0,0,1,120.31,125.33Z"/><path class="a" d="M132.75,23.32a4.4,4.4,0,0,0-4.4-4.4,4.45,4.45,0,0,0-4.41,4.4,4.41,4.41,0,0,0,8.81,0Z"/><path class="a" d="M114.68,15.37a4.41,4.41,0,1,0-4.4-4.4A4.4,4.4,0,0,0,114.68,15.37Z"/><path class="a" d="M117.23,104.41a3.74,3.74,0,0,0-5.41.07,52.45,52.45,0,0,1-38.23,16.61h-.92a3.75,3.75,0,0,1-3.79-3.48,3.66,3.66,0,0,1,3.79-3.94h.92a45.17,45.17,0,0,0,18.08-3.78,3.81,3.81,0,0,0,1.15-6.18l-.07-.08a3.9,3.9,0,0,0-4.25-.77,37,37,0,0,1-19,2.86,36,36,0,0,1-16-5.71h-30a9,9,0,0,1-9-9c0-5.18.08-10.27.23-15.45a27.93,27.93,0,0,1,4.86-15.52,13.37,13.37,0,0,0,.78-1.54c-1.55-.54-2.94-1-4.4-1.47-2.71-.85-3.56-2.09-3.25-4.33a4.27,4.27,0,0,1,4.64-3.86c2.54,0,5-.07,7.56,0a2.29,2.29,0,0,0,2.24-1.31c2-3.4,3.94-7.26,6.26-10.5,5.33-7.65,11.58-7.42,11.81-7.42H87.73c2.93,0,3.7-4.17.92-5.09h-.07c-1.47-.47-3.09-.93-4.87-1.32a44.81,44.81,0,0,0-10.12-1.15h-.92a3.7,3.7,0,0,1-3.79-3.94,3.76,3.76,0,0,1,3.87-3.48h.92A52.45,52.45,0,0,1,111.9,31.28a3.82,3.82,0,0,0,5.48.07l.08-.07a3.85,3.85,0,0,0,.08-5.33,60.11,60.11,0,0,0-16.76-12.51A6.57,6.57,0,0,0,97.3,4.32,67.25,67.25,0,0,0,73.59,0,66.45,66.45,0,0,0,30.27,16a4,4,0,0,0-1-3,3.75,3.75,0,0,0-2.86-1.23,3.87,3.87,0,0,0-2.62,1A73.76,73.76,0,0,0,0,67v1.86A73.76,73.76,0,0,0,23.79,123a3.87,3.87,0,0,0,2.62,1,3.75,3.75,0,0,0,2.86-1.23,4,4,0,0,0,1-3,66.45,66.45,0,0,0,43.32,16,67.33,67.33,0,0,0,23.56-4.25,6.55,6.55,0,0,0,3.47-9.11,60.21,60.21,0,0,0,16.76-12.51A3.89,3.89,0,0,0,117.23,104.41Z"/><path class="a" d="M90.9,29.89Z"/><path class="b" d="M33.28,79.23c-1.62,0-3.16.08-4.78,0a5.74,5.74,0,0,1-3.87-9.81,4.86,4.86,0,0,1,5.64-1.31c3.09,1.08,6.1,2.09,9.19,3.24a4,4,0,0,1,2.63,4.48,4.13,4.13,0,0,1-3.94,3.4Z"/><path class="b" d="M100.39,79.23c1.62,0,3.17.08,4.79,0A5.73,5.73,0,0,0,109,69.42a4.85,4.85,0,0,0-5.64-1.31c-3.09,1.08-6.1,2.09-9.19,3.24a4,4,0,0,0-2.62,4.48,4.12,4.12,0,0,0,3.94,3.4Z"/><path class="b" d="M82.4,80.93H51.28a4,4,0,0,1-4-4v-.7a4,4,0,0,1,4-4H82.4a4,4,0,0,1,4,4v.7A4,4,0,0,1,82.4,80.93Z"/><path class="b" d="M77.22,54.13H84.1c5.33,0,11.66,0,18.07-.07-2.24-3.79-4.64-7.49-6.88-11.2l-1.69-2.7a7.51,7.51,0,0,0-6.8-3.79H47.49a7.58,7.58,0,0,0-7,3.86c-.85,1.39-1.77,2.86-2.62,4.25-2,3.24-4.1,6.57-6,9.81h.16c.85,0,1.77-.08,2.7-.08s1.93-.08,2.94-.08H77.22Z"/><path class="c" d="M90.9,29.89Z"/><text class="d" transform="translate(138.7 95.93)">W<tspan class="e" x="74.56" y="0">o</tspan><tspan class="f" x="118.87" y="0">shi</tspan><tspan class="g" x="211.05" y="0">c</tspan><tspan class="h" x="248.37" y="0">o</tspan></text></svg>