<svg id="Layer_1" enable-background="new 0 0 512 512" viewBox="0 0 512 512" xmlns="http://www.w3.org/2000/svg"><path d="m403.4 209.83-81.46-33.61c-3.37-1.39-5.38-4.39-5.38-8.03v-132.5c0-11.41-9.28-20.69-20.69-20.69h-179.38c-11.41 0-20.69 9.28-20.69 20.69v387.89c0 11.41 9.28 20.69 20.69 20.69h231.82l25.17 43.59c2.44 4.22 6.39 7.25 11.12 8.51 1.58.42 3.19.63 4.79.63 3.17 0 6.29-.83 9.1-2.45 4.22-2.44 7.25-6.39 8.52-11.12s.62-9.67-1.81-13.89l-14.6-25.28h4.92c11.41 0 20.69-9.28 20.69-20.69v-194.61c-.01-8.54-4.91-15.87-12.81-19.13zm-7.99 270.5c-.44 1.64-1.48 3-2.92 3.83-1.45.84-3.15 1.05-4.78.62-1.64-.44-3-1.48-3.83-2.92l-37.68-65.26 10.92-6.31 37.67 65.25c.84 1.46 1.06 3.16.62 4.79zm-134.17-108.09c-4.16 2.4-6.39 6.87-6.17 11.37h-89.92c-4.79 0-8.69-3.9-8.69-8.69v-290.56c0-4.79 3.9-8.69 8.69-8.69h82.06c4.79 0 8.69 3.9 8.69 8.69v83.83c0 28.19 16.84 53.36 42.9 64.11l51.35 21.19c3.37 1.39 5.38 4.39 5.38 8.03v56.27l-39.91 23.04v-79.03c0-3.31-2.69-6-6-6s-6 2.69-6 6v85.95zm5.83 10.63c.03-.11.09-.19.18-.24l99.93-57.7c.17-.1.43-.03.53.14l19.38 33.57c.1.17.03.43-.14.53l-28.03 16.18-3.53-6.11c-2.84-4.92-9.16-6.61-14.08-3.77l-26.02 15.02c-4.92 2.84-6.61 9.16-3.77 14.08l3.53 6.11-28.03 16.18c-.09.05-.19.06-.29.03-.11-.03-.19-.09-.24-.18l-19.38-33.57c-.06-.06-.07-.16-.04-.27zm55.69 7.19 23.08-13.33 11.35 19.67-23.08 13.33zm81.44 33.52c0 4.79-3.9 8.69-8.69 8.69h-11.85l-16.42-28.44c1.04-1.18 1.8-2.58 2.22-4.14.71-2.66.35-5.44-1.02-7.82l-3.52-6.11 28.03-16.18c5.92-3.42 7.95-11.01 4.54-16.93l-19.38-33.57c-2.26-3.91-6.34-6.11-10.56-6.18v-51.37c0-8.54-4.9-15.87-12.8-19.13l-51.35-21.19c-21.55-8.89-35.48-29.71-35.48-53.02v-83.83c0-11.41-9.28-20.69-20.69-20.69h-82.06c-11.41 0-20.69 9.28-20.69 20.69v290.55c0 11.41 9.28 20.69 20.69 20.69h95.27l15.66 27.13c1.65 2.86 4.32 4.91 7.53 5.77 1.07.29 2.16.43 3.24.43 2.15 0 4.26-.56 6.16-1.66l28.03-16.18 3.53 6.11c1.37 2.38 3.6 4.08 6.26 4.8.89.24 1.79.36 2.69.36.68 0 1.34-.09 2-.22l5.86 10.15h-224.9c-4.79 0-8.69-3.9-8.69-8.69v-387.91c0-4.79 3.9-8.69 8.69-8.69h179.39c4.79 0 8.69 3.9 8.69 8.69v132.5c0 8.54 4.9 15.87 12.8 19.13l81.46 33.61c3.37 1.39 5.38 4.39 5.38 8.03v194.62zm-195.83-297.02v232.9c0 3.31-2.69 6-6 6s-6-2.69-6-6v-232.9c0-3.31 2.69-6 6-6s6 2.69 6 6zm53.63 114.52v118.39c0 3.31-2.69 6-6 6s-6-2.69-6-6v-118.39c0-3.31 2.69-6 6-6s6 2.68 6 6z"/></svg>