<svg id="Layer_1" enable-background="new 0 0 512 512" viewBox="0 0 512 512" xmlns="http://www.w3.org/2000/svg"><path d="m359.55 303.82c-11.14-43.76-24.29-70.38-35.9-93.86-7.6-15.37-14.77-29.89-20.31-47.23-7.57-23.71-9.29-78.22-.81-95.76.75-1.56.8-3.36.12-4.95s-2-2.82-3.64-3.36c-23.46-7.76-61.77-2.04-76.65 1.95-26.43 7.08-51.67 21.9-76.07 36.24-23.49 13.79-45.67 26.82-67.91 32.78-20.88 5.6-41.65 6.27-55.55 1.79-1.91-.61-4-.24-5.57 1.01-1.57 1.24-2.42 3.19-2.25 5.19 1.59 19.68 6.08 43.99 12.63 68.45 5.38 20.08 12.63 38.91 19.64 57.12 6.87 17.85 13.98 36.31 19.15 55.62 8.29 30.93 12.86 61.32 12.22 81.28-.09 2.78 1.74 5.25 4.43 5.98 8.44 2.29 18.3 3.42 29.07 3.42 13.48 0 28.37-1.8 43.57-5.32 2.64 3.12 5.39 6.25 8.38 9.29 6.68 6.79 13.7 12.9 20.32 17.67 3.56 2.57 5.74 5.74 6.88 9.97l3.12 11.65c.72 2.68 3.14 4.45 5.79 4.45.51 0 1.04-.07 1.56-.21l92.06-24.67c3.2-.86 5.1-4.15 4.24-7.35l-3.08-11.48c-1.31-4.88-.71-9.38 1.83-13.75 9.52-16.39 11.59-40.44 5.74-64.88 19.64-4.87 39.45-4.8 53.41.28 1.94.7 4.1.37 5.73-.9 1.63-1.26 2.5-3.27 2.3-5.32-.8-8.2-2.3-16.65-4.45-25.1zm-73.11 89.91c-4.17 7.17-5.19 14.87-3.04 22.88l1.52 5.69-80.47 21.56-1.57-5.86c-1.86-6.95-5.61-12.38-11.44-16.6-6.08-4.39-12.58-10.05-18.79-16.36-4.22-4.29-7.92-8.76-11.84-13.49-3.9-4.71-7.93-9.57-12.48-14.2-11.17-11.35-22.98-20.56-32.4-25.25-1.6-.8-2.36-2.49-1.88-4.22.33-1.22 1.11-2.56 2.23-3.87 1.58-1.86 3.34-2.97 5.69-3.6l9-2.41c6.16-1.65 11.77-1.29 17.67 1.12 8.03 3.29 14.89 9.1 19.31 16.34 1.55 2.55 4.74 3.57 7.49 2.39 2.74-1.17 4.21-4.19 3.43-7.07l-29.11-108.62c-1.35-5.04 1.65-10.23 6.69-11.58s10.24 1.65 11.58 6.69l26.47 98.78c.72 2.68 3.14 4.45 5.79 4.45.51 0 1.04-.07 1.56-.21 3.2-.86 5.1-4.15 4.24-7.35l-26.47-98.78c0-.01-.01-.02-.01-.03l-2.7-10.06c-.65-2.42-.31-4.97.96-7.17s3.3-3.77 5.73-4.42 4.97-.31 7.17.96 3.77 3.3 4.42 5.73l29.17 108.88c.86 3.2 4.15 5.1 7.35 4.24s5.1-4.15 4.24-7.35l-26.51-98.94c0-.01 0-.02-.01-.04-1.2-4.95 1.82-10.05 6.74-11.37 2.42-.65 4.97-.31 7.17.96s3.77 3.3 4.42 5.73l26.47 98.78c.72 2.68 3.14 4.45 5.79 4.45.51 0 1.04-.07 1.56-.21 3.2-.86 5.1-4.15 4.24-7.35l-15.89-59.29c-.65-2.42-.31-4.97.96-7.16 1.27-2.2 3.3-3.77 5.73-4.42s4.97-.31 7.17.96 3.77 3.3 4.42 5.73l21.97 81.98c5.94 22.18 4.51 44.78-3.74 58.98zm13.08-70.47-19.72-73.6c-1.48-5.52-5.03-10.14-10.01-13.01s-10.75-3.64-16.27-2.16c-3.22.86-6.12 2.45-8.56 4.6l-5.6-20.91c-1.48-5.52-5.03-10.14-10.01-13.01s-10.76-3.64-16.28-2.16c-3.86 1.04-7.19 3.11-9.81 5.83-1.72-2.31-3.91-4.28-6.49-5.77-4.97-2.87-10.75-3.64-16.27-2.16s-10.14 5.03-13.01 10.01c-1.48 2.56-2.39 5.34-2.73 8.18-3.61-1.03-7.53-1.13-11.41-.09-11.43 3.06-18.24 14.85-15.17 26.28l23.32 87.04c-2.63-1.67-5.4-3.11-8.3-4.29-8.34-3.42-16.62-3.94-25.33-1.61l-9 2.41c-4.72 1.26-8.55 3.69-11.72 7.41-2.29 2.68-3.86 5.53-4.67 8.47-2.02 7.3 1.32 14.77 8.1 18.15 8.16 4.06 19.07 12.63 29.2 22.92 2.55 2.59 4.92 5.27 7.26 8.03-21.1 4.26-40.99 4.89-56.31 1.76-.09-21.07-4.63-49.78-12.69-79.85-5.34-19.93-12.56-38.69-19.54-56.83-6.9-17.92-14.03-36.45-19.25-55.92-5.47-20.41-9.45-40.65-11.44-57.98 15.2 2.75 34.22 1.47 53.69-3.75 23.81-6.38 47.74-20.43 70.88-34.03 23.72-13.93 48.24-28.33 73.1-34.99 11.98-3.21 42.67-8 63.7-3.73-7.7 25.66-4.37 75.66 2.73 97.91 5.81 18.2 13.18 33.11 20.98 48.89 11.34 22.95 24.2 48.97 35.03 91.51 1.23 4.85 2.24 9.69 3 14.48-14.99-3.27-33.11-2.59-51.4 1.97zm9.47-215.45c-.76-3.22 1.23-6.46 4.46-7.22 26.32-6.23 53.93-9.38 82.05-9.38 33.69 0 66.38 4.49 97.16 13.33 3.18.92 5.02 4.24 4.11 7.42-.76 2.63-3.16 4.34-5.76 4.34-.55 0-1.11-.08-1.66-.23-29.7-8.54-61.27-12.87-93.84-12.87-27.2 0-53.87 3.05-79.29 9.06-3.23.77-6.47-1.22-7.23-4.45zm187.84 90.21c-.66 2.75-3.12 4.61-5.83 4.61-.46 0-.93-.05-1.4-.17-25.66-6.14-52.61-9.25-80.1-9.25-24.58 0-48.82 2.5-72.04 7.43-3.24.69-6.43-1.38-7.12-4.62s1.38-6.43 4.62-7.12c24.04-5.1 49.11-7.69 74.53-7.69 28.43 0 56.32 3.22 82.9 9.58 3.23.77 5.22 4.01 4.44 7.23z"/></svg>