<svg id="Layer_1" enable-background="new 0 0 512 512" viewBox="0 0 512 512" xmlns="http://www.w3.org/2000/svg"><path d="m455.42 15h-259.54c-10.6 0-19.94 4.18-27.01 12.08l-123.54 138.1c-11.23 12.56-16.93 27.47-16.93 44.32v180.55c0 13.91 10.14 25.5 23.42 27.76.3 1.55-.04 2.93-1.06 4.21l-18.91 23.85c-2.05 2.59-1.63 6.36.96 8.42l51.88 41.4c1.07.85 2.39 1.31 3.74 1.31.23 0 .45-.01.68-.04 1.58-.18 3.03-.98 4.02-2.23l21.83-27.53c.97-1.22 2.09-1.83 3.64-1.98l2.49-.24c19.72-1.89 36.4-8.15 52.49-19.69l7.93-5.69c3.11.68 6.22 1.41 9.46 2.17 14.59 3.42 29.67 6.96 48.6 6.97h.01c4.92 0 9.03-3.84 9.37-8.75.16-2.42.25-4.91.25-7.39 0-5.09-.44-9.84-1.16-14.37h207.4c15.53 0 28.17-12.64 28.17-28.17v-346.89c-.01-15.53-12.65-28.17-28.19-28.17zm-288.84 420.54c-14.3 10.26-29.12 15.82-46.64 17.5l-2.49.24c-4.79.46-8.91 2.7-11.9 6.47l-18.09 22.81-42.5-33.91 15.2-19.17c3.42-4.32 4.57-9.63 3.22-14.95-2.42-9.57-.87-18.59 4.61-26.81l49.91-74.85c.8-1.2 2.02-2.01 3.45-2.3s2.88 0 4.07.79c1.19.8 2.01 2.02 2.3 3.45s0 2.87-.79 4.07l-21.87 32.79c-1.84 2.76-1.09 6.48 1.66 8.32 1.02.68 2.18 1.01 3.32 1.01 1.94 0 3.84-.94 5-2.67l33.26-49.88c1.66-2.49 5.03-3.16 7.52-1.5 2.39 1.59 3.12 4.88 1.62 7.33-.01.01-.01.02-.02.04l-33.37 50.04c-1.84 2.76-1.09 6.48 1.66 8.32 2.76 1.84 6.48 1.09 8.32-1.66l39.65-59.47c1.66-2.49 5.03-3.16 7.52-1.5s3.16 5.03 1.5 7.52l-39.65 59.47c-1.84 2.76-1.09 6.48 1.66 8.32 1.02.68 2.18 1.01 3.32 1.01 1.94 0 3.84-.94 5-2.67l31.41-47.1c.8-1.2 2.02-2.01 3.45-2.3s2.87 0 4.07.79c1.19.8 2.01 2.02 2.3 3.45s0 2.88-.79 4.07l-42.62 63.91c-3.03 4.55-2.38 10.61 1.55 14.4 3.93 3.8 10.01 4.24 14.45 1.06l18.93-13.59c1.17-.84 2.6-1.17 4.04-.93s2.69 1.01 3.53 2.18 1.17 2.6.93 4.04-1.01 2.69-2.18 3.53zm70.52 1.17c-16.11-.3-29.58-3.39-42.6-6.44l4.64-3.33c3.77-2.71 6.26-6.73 7.02-11.33s-.32-9.21-3.02-12.98c-2.71-3.77-6.73-6.26-11.33-7.02s-9.21.32-12.98 3.02l-15.85 11.37 40.5-60.73c2.58-3.86 3.49-8.51 2.58-13.08s-3.54-8.51-7.41-11.08c-1.58-1.05-3.3-1.81-5.09-2.3 4.2-7.81 1.85-17.72-5.68-22.74-6.61-4.41-15.15-3.68-20.93 1.22-1.19-1.65-2.68-3.12-4.47-4.31-7.99-5.33-18.83-3.16-24.16 4.83l-2.22 3.32c-1.12-1.43-2.47-2.7-4.03-3.74-3.86-2.58-8.51-3.49-13.08-2.58s-8.51 3.54-11.08 7.41l-32.11 48.16c-.02-.87-.05-1.73-.05-2.6 0-15.03 3.01-26.79 5.91-38.15 2.42-9.47 4.92-19.24 5.52-30.47h.07c11.82 0 19.7-3.39 27.34-6.67 9.2-3.95 18.71-8.03 37.4-7.35h.22c13.68 0 25.86 2.86 38.75 5.88 13.65 3.2 27.73 6.51 45.01 6.92.01.56.01 1.11.01 1.66 0 11.93-2.56 21.97-5.28 32.59-3.09 12.09-6.29 24.59-6.29 41.13 0 17.81 3.75 31.23 7.07 43.07 2.93 10.46 5.69 20.34 5.69 32.21.01 1.37-.01 2.75-.07 4.11zm234.5-46.66c0 8.92-7.25 16.17-16.17 16.17h-209.93c-.78-3.08-1.62-6.09-2.46-9.07-1.63-5.82-3.29-11.75-4.54-18.24h192.71c3.31 0 6-2.69 6-6s-2.69-6-6-6h-194.37c-.26-3.04-.41-6.22-.41-9.59 0-15.03 3.01-26.79 5.91-38.15 2.78-10.87 5.65-22.12 5.65-35.56 0-1.51-.03-3.05-.09-4.58-.19-5.03-4.28-9-9.31-9.03-17.1-.13-31.22-3.44-44.88-6.65-13.56-3.18-26.36-6.19-41.38-6.2-21.31-.76-32.55 4.06-42.47 8.32-7.89 3.39-14.12 6.06-24.57 5.66l-.24-.01c-2.53-.1-4.94.8-6.79 2.53s-2.91 4.08-2.97 6.61c-.29 10.98-2.7 20.42-5.25 30.41-3.09 12.09-6.29 24.59-6.29 41.13 0 6.29.46 12.4 1.39 18.59l-7.13 10.7c-4.93 7.39-7.51 15.49-7.7 23.9-5.82-2.45-9.91-8.21-9.91-14.91v-180.58c0-14 4.54-25.88 13.87-36.31l123.54-138.11c4.79-5.36 10.87-8.08 18.06-8.08h259.55c8.92 0 16.17 7.25 16.17 16.17v346.88zm-21.18-347.87h-254.54c-2.88 0-4.83.87-6.75 3.02l-113.05 126.37c-3.75 4.19-4.65 9.99-2.36 15.12 2.3 5.13 7.22 8.32 12.84 8.32h363.85c3.31 0 6-2.69 6-6v-140.83c.01-3.31-2.68-6-5.99-6zm-6 140.84h-357.86c-.89 0-1.52-.41-1.89-1.22-.36-.81-.25-1.56.35-2.22l112.17-125.4h247.23zm-52.71 52.54h-47.26c-8.05 0-14.6 6.55-14.6 14.6v5.84c0 11.27 9.17 20.44 20.44 20.44h35.58c11.27 0 20.44-9.17 20.44-20.44v-5.84c0-8.05-6.55-14.6-14.6-14.6zm2.6 20.44c0 4.66-3.79 8.44-8.44 8.44h-35.58c-4.66 0-8.44-3.79-8.44-8.44v-5.84c0-1.41 1.19-2.6 2.6-2.6h47.26c1.41 0 2.6 1.19 2.6 2.6zm-8.44 35.64c-10.63 0-19.29 8.65-19.29 19.29s8.65 19.29 19.29 19.29 19.29-8.65 19.29-19.29-8.65-19.29-19.29-19.29zm0 26.57c-4.02 0-7.29-3.27-7.29-7.29s3.27-7.29 7.29-7.29 7.29 3.27 7.29 7.29-3.27 7.29-7.29 7.29z"/></svg>