<svg id="Layer_1" enable-background="new 0 0 512 512" viewBox="0 0 512 512" xmlns="http://www.w3.org/2000/svg"><path d="m331.85 57.94h60.51c3.31 0 6 2.69 6 6s-2.69 6-6 6h-60.51c-3.31 0-6-2.69-6-6s2.69-6 6-6zm-3.9-10.96c.66 0 1.33-.11 1.98-.34l57.11-19.98c3.13-1.09 4.78-4.52 3.68-7.64-1.09-3.13-4.52-4.78-7.64-3.68l-57.11 19.98c-3.13 1.09-4.78 4.52-3.68 7.64.86 2.48 3.18 4.02 5.66 4.02zm-1.98 45.58 57.11 19.98c.66.23 1.32.34 1.98.34 2.48 0 4.8-1.55 5.66-4.02 1.09-3.13-.55-6.55-3.68-7.64l-57.11-19.98c-3.13-1.09-6.55.55-7.64 3.68-1.1 3.13.55 6.55 3.68 7.64zm105.18 290.61c0 2.23-1.24 4.28-3.21 5.31l-29.56 15.52-15.51 29.56c-1.04 1.97-3.08 3.21-5.31 3.21s-4.28-1.24-5.31-3.21l-15.51-29.56-29.56-15.51c-1.97-1.04-3.21-3.08-3.21-5.31s1.24-4.28 3.21-5.31l29.56-15.51 15.51-29.56c1.04-1.97 3.08-3.21 5.31-3.21s4.28 1.24 5.31 3.21l15.51 29.56 29.56 15.51c1.97 1.03 3.21 3.07 3.21 5.3zm-18.92 0-21.09-11.06c-1.08-.57-1.96-1.45-2.53-2.53l-11.06-21.09-11.06 21.09c-.57 1.08-1.45 1.96-2.53 2.53l-21.09 11.06 21.09 11.06c1.08.57 1.96 1.45 2.53 2.53l11.06 21.09 11.06-21.09c.57-1.08 1.45-1.96 2.53-2.53zm-100.77-71.92-1.88 3.59c.21 2.17.38 4.37.47 6.62v.23 131.2c0 24.32-19.79 44.11-44.11 44.11h-117.87c-24.32 0-44.11-19.79-44.11-44.11v-181.46c0-30.89 6.01-57.06 19.47-84.86l20.66-42.65v-33.43h-57.24c-3.31 0-6-2.69-6-6v-6.52c0-35.67 29.02-64.69 64.69-64.69h151.53c3.31 0 6 2.69 6 6v49.32c0 3.31-2.69 6-6 6h-47.92v4.18c0 20.22 7.92 39.15 21.18 50.63 2 1.73 2.63 4.56 1.56 6.97-.97 2.19-3.13 3.57-5.48 3.57-.24 0-.48-.01-.73-.04-17.08-2.07-32.81-9.12-44.54-19.55v4.24c2.6 10.89 6.63 30.36 9.07 42.11.69 3.32 1.26 6.09 1.66 7.97 5.18 24.57 20.26 37.74 36.22 51.67 3.14 2.75 6.35 5.56 9.5 8.48l7.75-14.77c1.04-1.98 3.08-3.21 5.31-3.21s4.28 1.24 5.31 3.21l15.51 29.55 29.56 15.51c1.97 1.04 3.21 3.08 3.21 5.31s-1.24 4.28-3.21 5.31zm-31.88-34.41c-.57 1.08-1.45 1.96-2.52 2.53l-21.09 11.06 21.09 11.06c1.08.57 1.96 1.45 2.53 2.53l11.06 21.09 11.06-21.09c.57-1.08 1.45-1.96 2.53-2.53l21.09-11.06-21.09-11.06c-1.08-.57-1.96-1.45-2.52-2.53l-11.06-21.09zm-42.44-178.06v-.25l-16.01 10.03v14.06c6.73 9.33 16.86 16.7 28.73 21.16-8.13-12.72-12.72-28.54-12.72-45zm53.93-53.5h-22.73v37.32h22.73zm-198.22 53.21h121.76l23.9-14.97c.96-.6 2.06-.92 3.19-.92h14.64v-37.32h-110.8c-29.05 0-52.69 23.64-52.69 52.69zm63.24 12v28.81h53.04v-28.81zm141.96 226.33-2.1 3.99c-1.04 1.97-3.08 3.21-5.31 3.21s-4.28-1.24-5.31-3.21l-15.51-29.56-29.56-15.51c-1.97-1.04-3.21-3.08-3.21-5.31s1.24-4.28 3.21-5.31l29.56-15.51 1.98-3.77c-3.76-3.6-7.73-7.08-11.61-10.46-16.75-14.62-34.06-29.74-40.07-58.24-.4-1.89-.97-4.67-1.67-8.01-2.14-10.37-5.54-26.79-8.07-37.84h-56.53l-19.62 40.5c-12.64 26.08-18.27 50.64-18.27 79.62v181.46c0 17.71 14.41 32.11 32.11 32.11h117.87c17.71 0 32.11-14.41 32.11-32.11zm93.44-136.01 18.1 9.5c1.97 1.04 3.21 3.08 3.21 5.31s-1.24 4.28-3.21 5.31l-18.1 9.5-9.5 18.1c-1.04 1.98-3.08 3.21-5.31 3.21s-4.28-1.24-5.31-3.21l-9.5-18.1-18.1-9.5c-1.97-1.04-3.21-3.08-3.21-5.31s1.24-4.28 3.21-5.31l18.1-9.5 9.5-18.1c1.04-1.97 3.08-3.21 5.31-3.21s4.28 1.24 5.31 3.21zm2.4 14.81-9.63-5.05c-1.08-.57-1.96-1.45-2.52-2.53l-5.05-9.63-5.05 9.63c-.57 1.08-1.45 1.96-2.52 2.52l-9.63 5.05 9.63 5.05c1.08.57 1.96 1.45 2.52 2.52l5.05 9.63 5.05-9.63c.57-1.08 1.45-1.96 2.53-2.53z"/></svg>