<svg id="Layer_1" enable-background="new 0 0 512 512" viewBox="0 0 512 512" xmlns="http://www.w3.org/2000/svg"><path d="m255.78 366.62h-30.88l34.88-41.46c1.5-1.79 1.83-4.28.85-6.39s-3.11-3.47-5.44-3.47h-50.21c-2.25 0-4.3 1.25-5.33 3.25l-37.9 73.47c-.96 1.86-.88 4.09.21 5.87 1.09 1.79 3.03 2.88 5.12 2.88h28.73l-11.57 34.41c-.88 2.63.15 5.52 2.5 6.99.98.62 2.09.92 3.19.92 1.53 0 3.05-.58 4.2-1.71l65.86-64.47c1.74-1.71 2.28-4.3 1.36-6.55-.93-2.26-3.13-3.74-5.57-3.74zm-52.22 48.73 6.27-18.67c.62-1.83.31-3.85-.82-5.41-1.13-1.57-2.94-2.5-4.87-2.5h-27.23l31.71-61.47h33.67l-34.88 41.46c-1.5 1.79-1.83 4.28-.85 6.39s3.11 3.47 5.44 3.47h29.07zm211.57-127.5h-39.28c-3.31 0-6 2.69-6 6v34.09h-14.49v-8.41c0-1.59-.63-3.12-1.76-4.24l-52.13-52.13c-1.13-1.12-2.65-1.76-4.24-1.76h-46.68v-14.61h40.15c3.31 0 6-2.69 6-6v-25.24c0-3.31-2.69-6-6-6h-171.8c-3.31 0-6 2.69-6 6v25.24c0 3.31 2.69 6 6 6h40.15v14.61h-53.04c-3.31 0-6 2.69-6 6v46.59h-26.52c-3.31 0-6 2.69-6 6v27.16h-14.51v-40.62c0-3.31-2.69-6-6-6h-25.98c-3.31 0-6 2.69-6 6v145.23c0 3.31 2.69 6 6 6h25.98c3.31 0 6-2.69 6-6v-40.62h14.51v33.62c0 3.31 2.69 6 6 6h49.73l43.82 44.46c1.13 1.14 2.67 1.79 4.27 1.79h178.07c3.31 0 6-2.69 6-6v-45.57h14.49v32.13c0 3.31 2.69 6 6 6h39.28c3.31 0 6-2.69 6-6v-183.72c-.02-3.31-2.7-6-6.02-6zm-374.15 157.9h-13.98v-133.23h13.98zm83.92-224.21h159.8v13.24h-159.8zm46.15 25.24h67.51v14.61h-67.51zm-118.07 152.35v-39.98h14.51v39.98zm290.39 85.87h-169.55l-43.82-44.46c-1.13-1.14-2.67-1.79-4.27-1.79h-46.24v-112.77h26.52c3.31 0 6-2.69 6-6v-46.59h182.74l48.62 48.62zm12-51.57v-93.5h14.49v93.5zm53.76 38.14h-27.28v-171.72h27.28zm81.58-315.91-34.59-40.96c-.04-.05-.08-.09-.12-.13-20.2-22.54-40.78-39.14-56.75-45.83l-14.85-17.58 1.9-1.61c4.42-3.73 10.22-5.33 15.52-4.26 2.5.5 5.05-.63 6.35-2.83s1.06-4.97-.58-6.92l-4.83-5.72c-14.9-17.64-41.38-19.87-59.02-4.97l-59 49.83c-1.9 1.6-3.06 3.85-3.27 6.33s.56 4.89 2.16 6.79l11.37 13.45c1.6 1.9 3.85 3.06 6.33 3.27.27.02.54.03.8.03 2.2 0 4.3-.77 5.99-2.19l11.37-9.6 8.6 10.18c3.22 3.81 4.69 8.86 4.05 13.86-.49 3.76 1.66 7.3 5.23 8.61.92.34 1.87.5 2.8.5 2.67 0 5.22-1.33 6.75-3.68 4.07-6.25 6.36-13.29 6.89-20.41l3.56 4.22 10.41 12.32c8.46 10.02 9.12 22.11 4.87 27.58-.03.04-.07.09-.1.13-10.66 14.54-10.81 34.09-.34 46.49l31.14 36.88c5.28 6.25 12.84 9.47 20.44 9.47 6.09 0 12.22-2.07 17.23-6.3l46.51-39.28c11.26-9.51 12.69-26.41 3.18-37.67zm-139.22-121.65c11.35-9.58 27.81-9.23 38.74.15-4.21 1.21-8.21 3.31-11.66 6.23l-38.47 32.48-13.39-.05c-1.44-.04-2.81.5-3.89 1.42l-4.27 3.61-7.89-9.34zm-49.06 57.44-7.89-9.34 6.95-5.87 7.89 9.34zm39.28 10.87c-1.13-2.56-2.63-4.96-4.46-7.13l-8.6-10.18.21-.18 9.8.04c2.74 5.43 3.76 11.51 3.05 17.45zm9.03-22.73 24.5-20.69 11.93 14.12-24.5 20.69zm134.21 94.55c-.33 3.93-2.16 7.49-5.16 10.02l-46.51 39.28c-6.21 5.24-15.52 4.46-20.76-1.75l-31.14-36.88c-6.92-8.19-6.58-21.47.8-31.59 8.37-10.86 6.12-29.16-5.24-42.61l-6.54-7.74 26.25-22.17c13.95 6.53 32.45 21.85 50.35 41.8l34.54 40.89c2.53 3.01 3.74 6.82 3.41 10.75zm-247.21-43.91 32.79-27.69c2.53-2.14 6.32-1.82 8.46.71s1.82 6.32-.71 8.46l-32.79 27.69c-1.13.95-2.5 1.42-3.87 1.42-1.71 0-3.4-.72-4.59-2.13-2.14-2.54-1.82-6.32.71-8.46zm-34.46-18.6c-.9-3.19.96-6.5 4.15-7.4l54.4-15.31c3.19-.9 6.5.96 7.4 4.15s-.96 6.5-4.15 7.4l-54.4 15.31c-.54.15-1.09.23-1.63.23-2.62-.01-5.03-1.74-5.77-4.38zm76.12 5.8c1.42-2.99 5-4.27 7.99-2.85s4.27 5 2.85 7.99l-24.2 51.07c-1.03 2.16-3.18 3.43-5.43 3.43-.86 0-1.74-.19-2.57-.58-2.99-1.42-4.27-5-2.85-7.99z"/></svg>