<svg id="Layer_1" enable-background="new 0 0 512 512" viewBox="0 0 512 512" xmlns="http://www.w3.org/2000/svg"><path d="m91.44 163.22h287.95c1.81 0 3.52-.81 4.66-2.22 1.14-1.4 1.59-3.24 1.22-5.01l-17.84-85.36c-1.03-4.92-5.09-8.22-10.11-8.22h-243.8c-5.02 0-9.09 3.3-10.11 8.22l-17.84 85.37c-.37 1.77.08 3.61 1.22 5.01 1.13 1.4 2.84 2.21 4.65 2.21zm23.43-88.81h241.08l16.05 76.81h-273.18zm12.41 130.7h-48.04c-9.71 0-17.6 7.9-17.6 17.6v10.87c0 9.71 7.9 17.6 17.6 17.6h48.04c9.71 0 17.6-7.9 17.6-17.6v-10.87c0-9.71-7.9-17.6-17.6-17.6zm5.6 28.47c0 3.09-2.51 5.6-5.6 5.6h-48.04c-3.09 0-5.6-2.51-5.6-5.6v-10.87c0-3.09 2.51-5.6 5.6-5.6h48.04c3.09 0 5.6 2.51 5.6 5.6zm164.76 5.61h-124.45c-8.98 0-16.29 7.31-16.29 16.29v16.67c0 8.98 7.31 16.29 16.29 16.29h124.45c8.98 0 16.29-7.31 16.29-16.29v-16.67c0-8.99-7.31-16.29-16.29-16.29zm4.29 32.96c0 2.36-1.92 4.29-4.29 4.29h-124.45c-2.36 0-4.29-1.92-4.29-4.29v-16.67c0-2.36 1.92-4.29 4.29-4.29h124.45c2.36 0 4.29 1.92 4.29 4.29zm194.21 107.46-23.41-38.96 1.97-1.19c1.36-.82 2.35-2.15 2.73-3.69s.14-3.18-.68-4.54l-9.28-15.44c19.32-23.85 21.91-57.95 5.94-84.52-8.5-14.14-21.18-24.78-36.3-30.68-1.26-3.57-2.94-7.03-5.11-10.5l-7.17-11.47 12.46-1.68c10.74-1.45 18.53-10.36 18.53-21.2v-13.48c0-10.1-8.22-18.31-18.31-18.31h-35.07l-12.14-58.1c-3.3-15.78-16.86-26.81-32.99-26.81h-243.79c-16.12 0-29.69 11.02-32.99 26.81l-12.15 58.11h-35.07c-10.1 0-18.31 8.22-18.31 18.31v13.48c0 10.84 7.8 19.75 18.54 21.2l12.46 1.68-7.18 11.47c-5.42 8.66-7.94 17.45-7.94 27.67v80.68c0 9.25 7.53 16.78 16.78 16.78h9.73v20.37c0 15.4 12.53 27.93 27.93 27.93h18.76c15.4 0 27.93-12.53 27.93-27.93v-20.37h206.82v20.37c0 15.4 12.53 27.93 27.93 27.93h18.76c12.72 0 23.61-8.63 26.91-20.46 3.96-.11 7.95-.54 11.91-1.31l9.27 15.43c1.13 1.87 3.11 2.91 5.15 2.91 1.05 0 2.12-.28 3.08-.86l1.97-1.19 23.41 38.95c1.13 1.87 3.11 2.91 5.15 2.91 1.05 0 2.12-.28 3.08-.86l2.77-1.67c3.95 14.17 3.89 24.92-.19 31.97-6.23 10.78-21.88 13.88-38.45 17.15-15.35 3.04-31.23 6.18-41.32 16.2-2.35 2.34-2.36 6.13-.03 8.49 1.17 1.18 2.71 1.77 4.26 1.77 1.53 0 3.06-.58 4.23-1.74 7.51-7.46 21.58-10.25 35.19-12.94 18.47-3.65 37.56-7.43 46.51-22.92 6.16-10.66 6.3-25.2.43-44.37l5.23-3.15c1.36-.82 2.35-2.15 2.73-3.69s.15-3.17-.67-4.54zm-58.63-243.65c3.48 0 6.31 2.83 6.31 6.31v13.48c0 4.76-3.42 8.67-8.14 9.31l-17.84 2.4-9.48-15.15-3.42-16.35zm-402.37 29.1c-4.72-.64-8.14-4.55-8.14-9.31v-13.48c0-3.48 2.83-6.31 6.31-6.31h32.56l-3.42 16.35-9.48 15.15zm7.74 133.38v-80.68c0-7.97 1.89-14.54 6.11-21.3l24.21-38.7c.38-.6.64-1.26.79-1.95l18.28-87.51c2.12-10.16 10.86-17.26 21.24-17.26h243.79c10.38 0 19.12 7.1 21.24 17.26l18.29 87.51c.14.69.41 1.35.79 1.95l24.18 38.66c-16.56-2.68-33.35.33-48.05 8.68h-30.21c-9.71 0-17.6 7.9-17.6 17.6v10.87c0 8.06 5.45 14.85 12.85 16.93-.08.31-.18.62-.26.94-4.39 17.61-2.21 35.81 6.08 51.77h-296.96c-2.63.01-4.77-2.13-4.77-4.77zm299.92-59.32c-2.73-.37-4.85-2.71-4.85-5.55v-10.87c0-3.09 2.51-5.6 5.6-5.6h14.37c-6.35 6.34-11.46 13.79-15.12 22.02zm-222.8 96.47c0 8.78-7.15 15.93-15.93 15.93h-18.76c-8.78 0-15.93-7.15-15.93-15.93v-20.37h50.62zm265.51 15.93h-18.76c-8.78 0-15.93-7.15-15.93-15.93v-20.37h1.56c11.87 14.88 29.07 24.46 47.55 27.12-2.56 5.43-8.09 9.18-14.42 9.18zm-28.33-50.39c-8.5-14.15-10.99-30.77-7-46.79s13.98-29.53 28.14-38.03c14.15-8.51 30.77-10.99 46.79-7s29.53 13.98 38.03 28.14c12.61 20.97 11.41 47.55-2.32 67.26l-8.18-13.62c7.53-14.66 7.03-32.11-1.55-46.4-6.57-10.93-17-18.65-29.38-21.73-12.37-3.08-25.21-1.16-36.14 5.41-22.56 13.56-29.89 42.95-16.33 65.52 8.58 14.28 23.76 22.91 40.24 23.14l8.19 13.62c-23.86 2.87-47.89-8.54-60.49-29.52zm41.66-50.67c-.02.01-.05.03-.07.04-5.71 3.46-9.75 8.94-11.37 15.46-1.63 6.54-.63 13.3 2.83 19.05l11.42 19c-9.12-2.23-17.13-7.97-22.13-16.3-4.92-8.18-6.36-17.79-4.05-27.06 2.31-9.26 8.09-17.08 16.27-21.99 8.18-4.92 17.79-6.36 27.06-4.05 9.26 2.31 17.08 8.09 21.99 16.27 5.01 8.33 6.32 18.09 4.01 27.19l-11.42-19c-7.15-11.9-22.65-15.76-34.54-8.61zm1.67 28.37c-1.8-3-2.32-6.54-1.47-9.97s2.98-6.31 5.97-8.11c.02-.01.03-.02.05-.03 6.22-3.7 14.3-1.68 18.03 4.54l40.28 67.02-22.58 13.57zm73.9 106.84-20.32-33.82 8.35-5.02 20.32 33.82z"/></svg>