<svg xmlns="http://www.w3.org/2000/svg" width="482.01" height="340.34" viewBox="0 0 482.01 340.34"><defs><style>.a{fill:#e81c2e;}</style></defs><title>icon-01-Global</title><path class="a" d="M82,283.26h43.24a6,6,0,0,0,4.9-9.46l-20.45-28.92a6,6,0,0,0-4.9-2.54H47.66a6,6,0,0,0-5.91,7A40.73,40.73,0,0,0,82,283.26Zm19.68-28.92,12,16.92H82a29.17,29.17,0,0,1-26.21-16.92Zm391.09-83.93L376.82,135.23a6.1,6.1,0,0,0-3.49,0L339.9,145.38l-14.65-37.17a34.69,34.69,0,0,0-32.86-22.37H132.66A34.69,34.69,0,0,0,99.8,108.21L80.25,157.82a18.33,18.33,0,0,0-11.65-4.16H40a18.46,18.46,0,0,0,0,36.92H65c-.21.2-.42.4-.64.59l-37.26,32.6A34.4,34.4,0,0,0,15,250.35v69.41a33.15,33.15,0,0,0,7.09,20.52v36.07a20.4,20.4,0,0,0,20.37,20.37H84.77a20.4,20.4,0,0,0,20.37-20.37V353.13H273.49c22.59,30,57.16,55.41,99.33,72.61a6,6,0,0,0,2.27.44,6.15,6.15,0,0,0,2.27-.44c49.78-20.3,89-52,110.37-89.31A67.37,67.37,0,0,0,497,301.59V176.15a6,6,0,0,0-4.27-5.74ZM111,112.6a22.9,22.9,0,0,1,21.7-14.77H292.4a22.91,22.91,0,0,1,21.7,14.77l14.29,36.27-71,21.54a6,6,0,0,0-4.26,5.74v8.52H82.57Zm142.2,158.66H163.3l-12-16.92H253.16ZM33.55,172.11A6.47,6.47,0,0,1,40,165.65h28.6A6.47,6.47,0,0,1,75,171.19l-2.33,5.92a6.34,6.34,0,0,1-4,1.45H40a6.45,6.45,0,0,1-6.45-6.45ZM27,250.34a22.43,22.43,0,0,1,8-17.55l37.26-32.6a36.42,36.42,0,0,0,3.51-3.52H253.16v45.67H139.74a6,6,0,0,0-4.9,9.46l20.45,28.92a6,6,0,0,0,4.9,2.54h93v18.31a72.67,72.67,0,0,0,.82,11.08H130.2a6,6,0,0,0-5.58,3.79l-9.8,24.68H48.37A21.39,21.39,0,0,1,27,319.75Zm66.14,126a8.37,8.37,0,0,1-8.37,8.37H42.46a8.37,8.37,0,0,1-8.37-8.37V349.9a33.15,33.15,0,0,0,14.28,3.22H93.14Zm34.59-35.22,6.54-16.47H257a72.62,72.62,0,0,0,5.45,11.77c.91,1.58,1.85,3.14,2.82,4.7ZM485,301.57a55.07,55.07,0,0,1-7.69,28.87c-19.74,34.42-56,63.92-102.23,83.24-46.24-19.32-82.48-48.81-102.23-83.24a55.09,55.09,0,0,1-7.69-28.87v-121l109.92-33.36L485,180.6ZM373.34,166.23l-86.25,26.18a6,6,0,0,0-4.26,5.74V301.57a37.79,37.79,0,0,0,5.35,20.08c20.92,36.48,57.43,59.07,84.37,71.6a6,6,0,0,0,5.06,0c26.94-12.53,63.45-35.12,84.37-71.6a37.82,37.82,0,0,0,5.35-20.08V198.15a6,6,0,0,0-4.26-5.74l-86.25-26.18a6.06,6.06,0,0,0-3.48,0Zm82,36.37v99a25.85,25.85,0,0,1-3.76,14.11c-18.72,32.64-51.42,53.49-76.49,65.5-25.07-12-57.77-32.86-76.49-65.5a25.87,25.87,0,0,1-3.76-14.11v-99l80.25-24.36Z" transform="translate(-15 -85.84)"/></svg>