<svg xmlns="http://www.w3.org/2000/svg" width="452.72" height="482" viewBox="0 0 452.72 482"><defs><style>.a{fill:#e81c2e;}</style></defs><title>icon-04-Global</title><path class="a" d="M73,162.5a6,6,0,0,0,5.31-3.21l12-22.83,22.83-12a6,6,0,0,0,0-10.62l-22.83-12-12-22.83a6,6,0,0,0-10.62,0l-12,22.83-22.83,12a6,6,0,0,0,0,10.62l22.83,12,12,22.83A6,6,0,0,0,73,162.5Zm-7.53-33.28a6,6,0,0,0-2.52-2.52l-14.36-7.53,14.36-7.53a6,6,0,0,0,2.52-2.52L73,94.76l7.53,14.36A6,6,0,0,0,83,111.64l14.36,7.53L83,126.7a6.05,6.05,0,0,0-2.53,2.53L73,143.59ZM376.18,73.86l29.53,15.49,15.5,29.53a6,6,0,0,0,10.62,0l15.49-29.53,29.53-15.49a6,6,0,0,0,0-10.62l-29.53-15.5L431.83,18.21a6,6,0,0,0-10.62,0l-15.5,29.53-29.53,15.5a6,6,0,0,0,0,10.62ZM412.94,57.5A6,6,0,0,0,415.46,55l11.05-21.06L437.56,55a6,6,0,0,0,2.53,2.52l21.06,11-21.06,11a6.05,6.05,0,0,0-2.53,2.53l-11.05,21.06L415.46,82.13a6.09,6.09,0,0,0-2.52-2.53l-21.06-11Zm66.22,377.28-31.73-16.65L430.78,386.4a6,6,0,0,0-10.62,0l-16.65,31.73-4.31,2.26a49.79,49.79,0,0,0-25.95-28.31V340.37l49.95,28.84a9.6,9.6,0,0,0,13.52-12.32c-5.36-11.67-5.52-26.59-.39-35.47l22.57-39.09a17,17,0,0,0-6.21-23.18l-19-11L470,185.27a20.08,20.08,0,0,0-34.78-20.08L398.9,228.11l-19-11a17,17,0,0,0-23.18,6.21l-12.41,21.5a15,15,0,0,1-.55-4.08V178.15a59.88,59.88,0,0,0-29.4-51.5A29,29,0,0,0,329.3,101.3V44a29,29,0,0,0-29-29H170.42a29,29,0,0,0-29,29v57.29a29,29,0,0,0,14.93,25.35A59.87,59.87,0,0,0,127,178.13v62.63a13.78,13.78,0,0,1-4.39,10.37,81.41,81.41,0,0,0-25.08,58.94v82a49.76,49.76,0,0,0-28.9,45.12v1.63a45.08,45.08,0,0,0,5.12,21.29,67.12,67.12,0,0,0,60,36.88H337a67.13,67.13,0,0,0,60-36.87c.2-.4.38-.79.57-1.18l5.91,3.1,16.65,31.73a6,6,0,0,0,10.62,0l16.65-31.73,31.73-16.65a6,6,0,0,0,0-10.62ZM118.3,399.5a37.11,37.11,0,0,1,17.28,4.22,38.58,38.58,0,0,0,18.49,4.52H316.66a38.66,38.66,0,0,0,18.49-4.52,37.5,37.5,0,0,1,32.26-1.1c-6.08,21.44-27.29,38.24-49.25,38.24H152.56c-22,0-43.17-16.8-49.25-38.24A37.48,37.48,0,0,1,118.3,399.5Zm307.61-84.08c-6.07,10.51-6.94,26.16-2.6,40L397,340.25l21-36.34a6,6,0,0,0-10.4-6l-21,36.34-14.2-8.2,9.21-16a6,6,0,0,0-10.4-6l-9.21,16-14.2-8.2,13.09-22.66a6,6,0,0,0-10.4-6l-13.09,22.66L311.2,290.7c14.16-3.16,27.28-11.75,33.34-22.26l10-17.3,81.37,47Zm19.7-144.23a8.08,8.08,0,0,1,14,8.08l-36.33,62.92-14-8.08Zm-78.5,58.16a5,5,0,0,1,6.79-1.82l72.76,42a5,5,0,0,1,1.82,6.79l-6.58,11.39-81.36-47Zm-33,33.09c-5.13,8.88-18.13,16.2-30.92,17.4a9.59,9.59,0,0,0-3.9,17.86l61.9,35.74v54.85a49.64,49.64,0,0,0-31.63,4.8,26.72,26.72,0,0,1-13,3.17H285.18v-132a46.93,46.93,0,0,1,14.2-34.29l32.37-32.37v43.22A25.84,25.84,0,0,0,337.29,257ZM197.46,27h75.8v91.29h-75.8ZM317.29,44v57.29a17,17,0,0,1-17,17h-15V27h15A17,17,0,0,1,317.29,44ZM153.43,44a17,17,0,0,1,17-17h15v91.29h-15a17,17,0,0,1-17-17Zm33.37,86.29h97.11a47.89,47.89,0,0,1,47.84,47.84v2.45l-40.86,40.86a58.54,58.54,0,0,0-17.72,42.78v132H197.53v-132a58.54,58.54,0,0,0-17.72-42.78L139,180.58v-2.45a47.91,47.91,0,0,1,47.85-47.84ZM109.49,310.08a69.55,69.55,0,0,1,21.42-50.32,25.91,25.91,0,0,0,8.05-19V197.54l32.38,32.38a46.93,46.93,0,0,1,14.2,34.29v132H154.07a26.69,26.69,0,0,1-12.95-3.17,49.28,49.28,0,0,0-31.62-4.78V310.08Zm276.83,144.6A55.17,55.17,0,0,1,337,485H133.71a55.19,55.19,0,0,1-49.32-30.32,33.22,33.22,0,0,1-3.81-15.84v-1.63a37.63,37.63,0,0,1,12.31-27.85c8.75,24.66,33.77,43.5,59.66,43.5H318.14c25.9,0,50.91-18.84,59.66-43.5A37.58,37.58,0,0,1,388.4,426l-16.66,8.74a6,6,0,0,0,0,10.62l15.2,8a14.33,14.33,0,0,1-.62,1.32Zm53.87-2.38a6,6,0,0,0-2.52,2.53L425.46,478.1l-12.21-23.27a6.09,6.09,0,0,0-2.52-2.53l-23.26-12.21,23.26-12.21a6,6,0,0,0,2.52-2.52l12.21-23.27,12.21,23.27a6,6,0,0,0,2.52,2.52l23.26,12.21Z" transform="translate(-29.63 -15)"/></svg>