<svg xmlns="http://www.w3.org/2000/svg" width="482.01" height="482" viewBox="0 0 482.01 482"><defs><style>.a{fill:#e81c2e;}</style></defs><title>icon-03-Global</title><path class="a" d="M478.33,103.05h-1.12V81.29a66.29,66.29,0,1,0-132.58,0v6.24A219.54,219.54,0,1,0,454.06,277.47a221,221,0,0,0-4-42h28.31A18.7,18.7,0,0,0,497,216.79V121.73a18.71,18.71,0,0,0-18.68-18.68ZM410.92,27a54.35,54.35,0,0,1,54.29,54.29v21.77H453.42V81.29a42.49,42.49,0,0,0-85,0v21.77H356.65V81.29A54.33,54.33,0,0,1,410.92,27Zm30.5,76.05h-61V81.29a30.49,30.49,0,0,1,61,0Zm.07,159.33-15.06-15.12a6,6,0,0,0-8.51,8.47L442,279.92a206.28,206.28,0,0,1-20.72,87.95l-5.47-20.57a6,6,0,1,0-11.6,3.08l8.75,32.9a209.15,209.15,0,0,1-61.88,65.79l5.55-20.54a6,6,0,1,0-11.59-3.13l-8.9,32.94a206,206,0,0,1-86.56,26.1l15.13-15.08a6,6,0,0,0-8.47-8.51L232.07,485a206.28,206.28,0,0,1-87.95-20.72l20.57-5.47a6,6,0,0,0-3.08-11.6l-32.9,8.75A209.15,209.15,0,0,1,62.92,394l20.54,5.55A6,6,0,1,0,86.59,388L53.65,379.1a206,206,0,0,1-26.1-86.56l15.08,15.13a6,6,0,1,0,8.5-8.47L27,275a206.28,206.28,0,0,1,20.72-87.95l5.47,20.57A6,6,0,0,0,59,212.09a6.4,6.4,0,0,0,1.55-.2,6,6,0,0,0,4.26-7.34l-8.75-32.9A209.15,209.15,0,0,1,118,105.86L112.4,126.4A6,6,0,1,0,124,129.53l8.9-32.94a206,206,0,0,1,86.56-26.1L204.32,85.57a6,6,0,1,0,8.46,8.51L237,70a206.92,206.92,0,0,1,88,20.7l-20.67,5.5a6,6,0,0,0,1.53,11.8,6.4,6.4,0,0,0,1.55-.2l33-8.78c1.4.83,2.8,1.69,4.18,2.55v1.51h-1.12a18.7,18.7,0,0,0-18.67,18.67V143.1a160.06,160.06,0,0,0-90.32-27.52c-89.26,0-161.88,72.62-161.88,161.88s72.62,161.88,161.88,161.88S396.4,366.72,396.4,277.46a162.38,162.38,0,0,0-5.51-42h46.89a207.86,207.86,0,0,1,3.71,26.93Zm-63.05-26.92a150,150,0,0,1,6,42c0,82.65-67.24,149.88-149.88,149.88S84.64,360.12,84.64,277.47s67.24-149.88,149.88-149.88a148.27,148.27,0,0,1,90.32,30.26v22.89a132.13,132.13,0,0,0-90.32-35.62c-73,0-132.35,59.37-132.35,132.35s59.37,132.35,132.35,132.35,132.35-59.37,132.35-132.35a131.76,131.76,0,0,0-6.81-42ZM256.87,246.72l9.81-85.23A120.29,120.29,0,0,1,324.84,198v17.7Zm98,30.75a119.71,119.71,0,0,1-26.21,74.88l-58-63.13,84.08-17C354.83,274,354.88,275.72,354.88,277.47ZM234.53,299.7a22.22,22.22,0,1,1,22.22-22.22A22.25,22.25,0,0,1,234.53,299.7Zm0-56.45a33.9,33.9,0,0,0-10.47,1.65l-9.91-86a120.56,120.56,0,0,1,40.76,0l-9.91,86a33.9,33.9,0,0,0-10.47-1.65Zm-32.16-81.76,9.81,85.22-78-35.65A120.82,120.82,0,0,1,202.37,161.49ZM128,221.44l78.76,36a34,34,0,0,0-6.49,19.92L115.42,260.2A119.38,119.38,0,0,1,128,221.44ZM114.3,272.22l84.07,17-58,63.13a119.78,119.78,0,0,1-26.2-74.88Q114.18,274.83,114.3,272.22Zm92.61,25.44A34.3,34.3,0,0,0,223.85,310L181.3,385.39a121.17,121.17,0,0,1-33-24Zm27.61,17.83,42.15,74.71a120.31,120.31,0,0,1-84.3,0Zm53.22,69.91L245.19,310a34.42,34.42,0,0,0,16.94-12.32l58.55,63.75a121,121,0,0,1-32.94,24Zm59.59-149.94a119.67,119.67,0,0,1,6.32,24.74l-84.9,17.17a34,34,0,0,0-6.49-19.92l65.87-30.11a18.66,18.66,0,0,0,15.39,8.12ZM485,216.79a6.67,6.67,0,0,1-6.67,6.67H343.52a6.67,6.67,0,0,1-6.67-6.67V121.73a6.67,6.67,0,0,1,6.67-6.67H478.33a6.67,6.67,0,0,1,6.67,6.67ZM410.92,136a22.19,22.19,0,0,0-15.39,38.17v12.92a15.39,15.39,0,1,0,30.78,0V174.19A22.19,22.19,0,0,0,410.92,136Zm5.91,30.49a6,6,0,0,0-2.51,4.88V187.1a3.39,3.39,0,1,1-6.78,0V171.39a6,6,0,0,0-2.51-4.88,10.2,10.2,0,1,1,11.8,0Z" transform="translate(-15 -15)"/></svg>