<svg xmlns="http://www.w3.org/2000/svg" width="256" height="256" viewBox="0 0 256 256"><title>up-right</title><path d="M257,20.33c0,6.4-2.13,10.67-6.4,14.94L37.27,248.6a20.63,20.63,0,0,1-29.87,0,20.63,20.63,0,0,1,0-29.87L220.73,5.4a20.63,20.63,0,0,1,29.87,0c4.27,4.27,6.4,8.53,6.4,14.93Z" transform="translate(-1 1)"/><path d="M257,20.33v192c0,12.8-8.53,21.34-21.33,21.34s-21.34-8.54-21.34-21.34V41.67H43.67c-12.8,0-21.34-8.54-21.34-21.34S30.87-1,43.67-1h192C248.47-1,257,7.53,257,20.33Z" transform="translate(-1 1)"/></svg>