<svg xmlns="http://www.w3.org/2000/svg" width="256" height="256" viewBox="0 0 256 256"><defs><style>.a{fill:#fff;}</style></defs><title>up-right-white</title><path class="a" d="M256,21.33c0,6.4-2.13,10.67-6.4,14.94L36.27,249.6a20.63,20.63,0,0,1-29.17.7l-.7-.7a20.63,20.63,0,0,1-.7-29.17l.7-.7L219.73,6.4a20.63,20.63,0,0,1,29.17-.7c.24.23.47.46.7.7C253.87,10.67,256,14.93,256,21.33Z" transform="translate(0)"/><path class="a" d="M256,21.33v192c0,12.8-8.53,21.34-21.33,21.34s-21.34-8.54-21.34-21.34V42.67H42.67c-12.8,0-21.34-8.54-21.34-21.34S29.87,0,42.67,0h192C247.47,0,256,8.53,256,21.33Z" transform="translate(0)"/></svg>