<svg xmlns="http://www.w3.org/2000/svg" width="21.5" height="15.09" viewBox="0 0 21.5 15.09"><defs><style>.a{fill:#e81c2e;fill-rule:evenodd;}</style></defs><title>quotation</title><path class="a" d="M18.62,9.42a5.11,5.11,0,1,1-6.09,5c0-3.76,1.27-6.1,2.75-7.56a8.91,8.91,0,0,1,5.13-2.42.74.74,0,0,1,.66,1.18S19.72,7.54,18.88,9C18.79,9.1,18.7,9.27,18.62,9.42Z" transform="translate(-1.25 -4.45)"/><path class="a" d="M7.34,9.42a5.11,5.11,0,1,1-6.09,5c0-3.76,1.27-6.1,2.75-7.56A8.91,8.91,0,0,1,9.13,4.46a.75.75,0,0,1,.66,1.18S8.44,7.54,7.59,9Z" transform="translate(-1.25 -4.45)"/></svg>