<svg xmlns="http://www.w3.org/2000/svg" width="482.02" height="376.12" viewBox="0 0 482.02 376.12"><title>icon-05</title><path d="M173.37,194.54a6,6,0,0,1-6,6H152.72a6,6,0,0,1,0-12h14.65A6,6,0,0,1,173.37,194.54Zm75.91-6H240a6,6,0,0,0,0,12h9.33a6,6,0,0,0,0-12ZM482,321.35a6,6,0,0,1-3.83,5.07c-12.41,4.74-28.18,7.39-44.51,7.49a50,50,0,0,1-49.32,42.21h-1.91a57.33,57.33,0,0,1-54.77-38.9l-3.46-9.91a100.38,100.38,0,0,0-16.76,7,6,6,0,0,1-7.6-1.57c-13.35-17.06-21.68-53.93-20.93-66.63.1-1.72.24-3.41.4-5.07H135.4a43.61,43.61,0,0,1-78.76,0H21.2A21.22,21.22,0,0,1,0,239.88V230.3c0-21,9-38.25,24.69-47.27C44,172,63,170.42,81.32,168.94c11-.89,22.46-1.81,34.22-4.76l70.87-40.37a93.44,93.44,0,0,1,48.09-12.75H348.83a93.25,93.25,0,0,1,51.53,14.79,109.86,109.86,0,0,1,25.85,22.21c2.08.13,4.22.21,6.42.21a130.93,130.93,0,0,0,31.05-3.56,6,6,0,0,1,7.2,4.12c3.19,10.78,4.95,25,4.95,40.1,0,16.51-3.17,29.52-6.23,42.1-2.84,11.66-5.52,22.68-5.52,35.87,0,25.8,7.74,44.39,15,48.78A6.06,6.06,0,0,1,482,321.35ZM394,136.06a81.26,81.26,0,0,0-38.33-12.71l4.69,13c13.05.41,24.21,3.25,35,6,3.66.93,7.26,1.85,10.9,2.67A103.44,103.44,0,0,0,394,136.06Zm-46.38.33-4.79-13.33H280.94l-11.5,40.73H289a5.06,5.06,0,0,0-.12-.78,6,6,0,0,1,2-5.51c13.26-11.66,39.46-19.6,56.76-21.15Zm-207.16,27.4H257l11.47-40.73h-34a80.75,80.75,0,0,0-42.15,11.17Zm-12.82,78.53A31.63,31.63,0,1,0,96,274a31.63,31.63,0,0,0,31.64-31.63ZM281,249.06c1.14-6.45,2.55-12.51,4-18.45,3.1-13.11,6-25.5,6-41.7,0-4.45-.17-8.86-.49-13.13h-172c-12.73,3.2-24.67,4.18-36.22,5.11-17.83,1.43-34.67,2.79-51.62,12.53-8,4.6-13.7,12.23-16.56,21.81H34.8a6,6,0,0,1,0,12H12.08c0,1-.08,2-.08,3.06v9.58a9.21,9.21,0,0,0,9.2,9.2H52.92a43.63,43.63,0,1,1,86.2,0H281Zm141.28,3.32a4.57,4.57,0,0,0-9.14,0v28.47a6,6,0,0,1-12,0V224.7a4.57,4.57,0,0,0-9.13-.36v56.53a6,6,0,0,1-12,0V213a4.57,4.57,0,0,0-9.14,0v67.88a6,6,0,0,1-12,0V230.38a4.57,4.57,0,0,0-9.14,0v67.8a6,6,0,0,1-11.81,1.49,60.66,60.66,0,0,0-5.66-14.73,6.67,6.67,0,0,1-.35-.71c-2.35-5.71-5.21-9.93-8-11.87a2.1,2.1,0,0,0-2.91.54,2.28,2.28,0,0,0-.32.77c-.12.61-.21,1.24-.27,1.86a15.05,15.05,0,0,0,.83,6.65L339,333.25a45.48,45.48,0,0,0,43.4,30.81h1.91a38,38,0,0,0,37.92-37.92Zm42.54,65.68c-7.82-11-12.74-29.92-12.74-51.16,0-14.63,3-26.87,5.86-38.71s5.89-24.2,5.89-39.27a148.11,148.11,0,0,0-3.06-31.29,148.31,148.31,0,0,1-28.13,2.63c-15.54,0-28.08-3.2-40.21-6.29-11.49-2.93-22.33-5.69-35.29-5.69a6.47,6.47,0,0,1-.76-.05c-10.24-1.31-40.06,5.24-55.09,16.29a176.44,176.44,0,0,1,1.64,24.41c0,17.6-3.22,31.25-6.34,44.46-2.56,10.86-5,21.12-5.71,33.47-.58,9.8,6.16,38.93,15.65,54.51A120.28,120.28,0,0,1,320.24,316l-10.41-29.83a27.15,27.15,0,0,1-1.46-11.65,31,31,0,0,1,.46-3.19,14.1,14.1,0,0,1,21.79-8.83,27.89,27.89,0,0,1,7.06,7.27V230.39a16.58,16.58,0,0,1,16.57-16.57,16.4,16.4,0,0,1,4.57.66v-1.42a16.56,16.56,0,0,1,32.62-4,16.29,16.29,0,0,1,5.09-.82,16.58,16.58,0,0,1,16.57,16.57V236.6a16.4,16.4,0,0,1,4.57-.66,16.58,16.58,0,0,1,16.57,16.57V322A130.35,130.35,0,0,0,464.82,318.06ZM56,102.14a6,6,0,0,1,3.21-5.31L78.83,86.54,89.12,66.92a6,6,0,0,1,10.62,0L110,86.54l19.62,10.29a6,6,0,0,1,0,10.62L110,117.74,99.75,137.36a6,6,0,0,1-10.62,0L78.84,117.74,59.22,107.45A6,6,0,0,1,56,102.14Zm18.91,0L86.06,108a6,6,0,0,1,2.52,2.52l5.85,11.15,5.85-11.15a6.05,6.05,0,0,1,2.53-2.53L114,102.13l-11.15-5.85a6.05,6.05,0,0,1-2.53-2.53L94.47,82.6,88.62,93.75a6,6,0,0,1-2.52,2.52Zm76.51-69.61a6,6,0,0,1,3.21-5.31L170.38,19l8.26-15.75a6,6,0,0,1,10.62,0L197.52,19l15.75,8.26a6,6,0,0,1,0,10.62l-15.74,8.22-8.26,15.75a6,6,0,0,1-10.62,0l-8.26-15.75L154.64,37.8a6,6,0,0,1-3.21-5.27Zm18.92,0,7.28,3.82a6,6,0,0,1,2.52,2.52L184,46.15l3.82-7.28a6.05,6.05,0,0,1,2.53-2.53l7.28-3.82-7.28-3.82a6.05,6.05,0,0,1-2.53-2.53L184,18.89l-3.82,7.28a6,6,0,0,1-2.52,2.52Zm193,41.53a6,6,0,0,1,3.21-5.31l15.75-8.26,8.26-15.75a6,6,0,0,1,10.62,0l8.26,15.75,15.75,8.26a6,6,0,0,1,0,10.62L409.4,87.63l-8.26,15.75a6,6,0,0,1-10.62,0l-8.26-15.75-15.75-8.26A6,6,0,0,1,363.3,74.06Zm18.91,0,7.28,3.82A6.05,6.05,0,0,1,392,80.41l3.82,7.28,3.82-7.28a6.05,6.05,0,0,1,2.53-2.53l7.28-3.82-7.28-3.82a6.05,6.05,0,0,1-2.53-2.53l-3.82-7.28L392,67.75a6.05,6.05,0,0,1-2.53,2.53Z" transform="translate(0 0)"/></svg>