<svg xmlns="http://www.w3.org/2000/svg" width="482" height="451.67" viewBox="0 0 482 451.67"><title>icon-07</title><path d="M476,289.6a6,6,0,0,0,0-12h-2.26V257.08H476a6,6,0,1,0,0-12h-2.26V219.15a6,6,0,0,0-6-6H450.08v-191a6,6,0,0,0-6-6h-49V6a6,6,0,0,0-6-6H92.94a6,6,0,0,0-6,6V16.19h-49a6,6,0,0,0-6,6v191H14.26a6,6,0,0,0-6,6v25.93H6a6,6,0,0,0,0,12H8.26V277.6H6a6,6,0,0,0,0,12H8.26v20.52H6a6,6,0,0,0,0,12H8.26v20.52H6a6,6,0,0,0,0,12H8.26v20.52H6a6,6,0,0,0,0,12H8.26v20.52H6a6,6,0,0,0,0,12H8.26v25.93a6,6,0,0,0,6,6H61.59a6,6,0,0,0,6-6h0V419.68h2.26a6,6,0,0,0,0-12H67.59V387.16h2.26a6,6,0,0,0,0-12H67.59V354.64h2.26a6,6,0,1,0,0-12H67.59V322.12h2.26a6,6,0,1,0,0-12H67.59V289.6h2.26a6,6,0,1,0,0-12H67.59V257.08h2.26a6,6,0,1,0,0-12H67.59V219.15a6,6,0,0,0-6-6H43.93v-185h43V38.38a6,6,0,0,0,6,6H389.07a6,6,0,0,0,6-6V28.19h43v185H420.41a6,6,0,0,0-6,6v25.93h-2.26a6,6,0,0,0,0,12h2.26V277.6h-2.26a6,6,0,0,0,0,12h2.26v20.52h-2.26a6,6,0,0,0,0,12h2.26v20.52h-2.26a6,6,0,0,0,0,12h2.26v20.52h-2.26a6,6,0,0,0,0,12h2.26v20.52h-2.26a6,6,0,0,0,0,12h2.26v25.93a6,6,0,0,0,6,6h47.33a6,6,0,0,0,6-6h0V419.68H476a6,6,0,0,0,0-12h-2.26V387.16H476a6,6,0,0,0,0-12h-2.26V354.64H476a6,6,0,0,0,0-12h-2.26V322.12H476a6,6,0,0,0,0-12h-2.26V289.6ZM55.59,245.08H53.33a6,6,0,0,0,0,12h2.26V277.6H53.33a6,6,0,1,0,0,12h2.26v20.52H53.33a6,6,0,1,0,0,12h2.26v20.52H53.33a6,6,0,1,0,0,12h2.26v20.52H53.33a6,6,0,1,0,0,12h2.26v20.52H53.33a6,6,0,1,0,0,12h2.26v19.93H20.26V419.68h2.26a6,6,0,0,0,0-12H20.26V387.16h2.26a6,6,0,0,0,0-12H20.26V354.64h2.26a6,6,0,0,0,0-12H20.26V322.12h2.26a6,6,0,0,0,0-12H20.26V289.6h2.26a6,6,0,0,0,0-12H20.26V257.08h2.26a6,6,0,1,0,0-12H20.26V225.15H55.59ZM383.06,32.37H98.94V12H383.06Zm78.68,277.75h-2.26a6,6,0,0,0,0,12h2.26v20.52h-2.26a6,6,0,0,0,0,12h2.26v20.52h-2.26a6,6,0,0,0,0,12h2.26v20.52h-2.26a6,6,0,0,0,0,12h2.26v19.93H426.41V419.68h2.26a6,6,0,0,0,0-12h-2.26V387.16h2.26a6,6,0,0,0,0-12h-2.26V354.64h2.26a6,6,0,0,0,0-12h-2.26V322.12h2.26a6,6,0,0,0,0-12h-2.26V289.6h2.26a6,6,0,0,0,0-12h-2.26V257.08h2.26a6,6,0,1,0,0-12h-2.26V225.15h35.33v19.93h-2.26a6,6,0,0,0,0,12h2.26V277.6h-2.26a6,6,0,0,0,0,12h2.26Zm-64.77-13a6,6,0,0,0-12,0,17.22,17.22,0,0,1-13.48,16.73L354.4,241.1a29.17,29.17,0,0,0-28.5-22.58H156.11a29.17,29.17,0,0,0-28.5,22.58l-17.09,72.76A17.2,17.2,0,0,1,97,297.13a6,6,0,0,0-12,0,29.25,29.25,0,0,0,15.38,25.67A36.68,36.68,0,0,0,90.2,348.18v53.16a17.23,17.23,0,0,0,17.21,17.21h15.15v19.87a13.26,13.26,0,0,0,13.25,13.25h34.4a13.26,13.26,0,0,0,13.25-13.25V418.5H298.59v19.87a13.26,13.26,0,0,0,13.25,13.25h34.4a13.26,13.26,0,0,0,13.25-13.25V418.5h15.15a17.23,17.23,0,0,0,17.21-17.21V348.13a36.67,36.67,0,0,0-10.18-25.33A29.29,29.29,0,0,0,397,297.13ZM139.29,243.8a17,17,0,0,1,16.82-13.33H325.89a17,17,0,0,1,16.82,13.33l15.89,67.65q-1.8-.18-3.6-.18H127a35.81,35.81,0,0,0-3.59.18Zm32.15,194.51a1.26,1.26,0,0,1-1.25,1.25h-34.4a1.26,1.26,0,0,1-1.25-1.25V418.48h36.9Zm176,0a1.26,1.26,0,0,1-1.25,1.25h-34.4a1.26,1.26,0,0,1-1.25-1.25V418.48h36.9Zm32.35-37.08a5.22,5.22,0,0,1-5.21,5.21H107.39a5.22,5.22,0,0,1-5.21-5.21V348.11A24.84,24.84,0,0,1,127,323.3H355a24.84,24.84,0,0,1,24.81,24.81v53.16ZM371,88.42V62.62a6,6,0,0,1,12,0V88.46a6,6,0,0,1-12,0Zm0,33.08a6,6,0,0,1,12,0v25.84a6,6,0,1,1-12,0ZM310.56,88.42V62.62a6,6,0,0,1,12,0V88.46a6,6,0,0,1-12,0Zm0,33.08a6,6,0,0,1,12,0v25.84a6,6,0,0,1-12,0ZM250.1,88.42V62.62a6,6,0,1,1,12,0V88.46a6,6,0,1,1-12,0Zm0,33.08a6,6,0,1,1,12,0v25.84a6,6,0,1,1-12,0ZM189.63,88.42V62.62a6,6,0,0,1,12,0V88.46a6,6,0,0,1-12,0Zm0,33.08a6,6,0,0,1,12,0v25.84a6,6,0,1,1-12,0ZM129.17,88.42V62.62a6,6,0,0,1,12,0V88.46a6,6,0,1,1-12,0Zm0,33.08a6,6,0,1,1,12,0v25.84a6,6,0,0,1-12,0Zm211.62-8.43V87.27a6,6,0,1,1,12,0v25.84a6,6,0,1,1-12,0Zm0,33.08a6,6,0,0,1,12,0V172a6,6,0,0,1-12,0Zm-60.46-33.08V87.27a6,6,0,1,1,12,0v25.84a6,6,0,1,1-12,0Zm0,33.08a6,6,0,0,1,12,0V172a6,6,0,0,1-12,0Zm-60.47-33.08V87.27a6,6,0,1,1,12,0v25.84a6,6,0,1,1-12,0Zm0,33.08a6,6,0,1,1,12,0V172a6,6,0,0,1-12,0ZM159.4,113.07V87.27a6,6,0,0,1,12,0v25.84a6,6,0,0,1-12,0Zm0,33.08a6,6,0,0,1,12,0V172a6,6,0,0,1-12,0Zm-60.4-33V87.27a6,6,0,1,1,12,0v25.84a6,6,0,1,1-12,0Zm0,33.08a6,6,0,0,1,12,0V172a6,6,0,0,1-12,0ZM280.18,349.3a10.24,10.24,0,0,0-9.47-6.14H211.28a10.24,10.24,0,0,0-9.47,6.14l-6.92,15.5a11.83,11.83,0,0,0,10.79,16.64H276.3a11.82,11.82,0,0,0,10.79-16.64ZM206,369.45l6.38-14.3h57.3l6.38,14.3Zm-55.65-32.34a24.45,24.45,0,1,0,24.45,24.45,24.45,24.45,0,0,0-24.45-24.45Zm0,36.89a12.45,12.45,0,1,1,12.45-12.45A12.44,12.44,0,0,1,150.35,374h0Zm181.36-36.89a24.45,24.45,0,1,0,24.45,24.45,24.45,24.45,0,0,0-24.45-24.45Zm0,36.89a12.45,12.45,0,1,1,12.45-12.45A12.44,12.44,0,0,1,331.71,374h0Z"/></svg>