<svg xmlns="http://www.w3.org/2000/svg" width="482" height="335.06" viewBox="0 0 482 335.06"><title>icon-08</title><path d="M429.17,182.07l-91.66-15.34a4.62,4.62,0,0,1-3-1.48A189.76,189.76,0,0,0,284,127.81c9.58-13.65,15.69-29.39,15.69-46V35.09A6,6,0,0,0,295,29.23c-24.22-5.27-47.84-15.49-64.81-28a6,6,0,0,0-7.14,0C206,13.74,182.42,24,158.2,29.23a6,6,0,0,0-4.73,5.86V81.76a74.11,74.11,0,0,0,6.59,30A152.28,152.28,0,0,0,127.35,122c-15.1,6.67-32.52,14.66-48.13,25.12a31.63,31.63,0,0,1-16.65,5.7l-10.33.71A56.35,56.35,0,0,0,0,209.55v46.76a56.67,56.67,0,0,0,56.62,56.62H58a63.62,63.62,0,0,0,96.46,0H327.69a63.62,63.62,0,0,0,96.46,0h16A41.92,41.92,0,0,0,482,271.12V244.47A63.11,63.11,0,0,0,429.17,182.07ZM165.49,39.85c22.52-5.48,44.34-14.94,61.1-26.5,16.76,11.56,38.58,21,61.1,26.5v41.9c0,33.28-30.71,64.63-61.1,76.54-30.39-11.91-61.1-43.25-61.1-76.54Zm233,171.36A40.44,40.44,0,0,0,438.8,249h9.39v22.11a8.07,8.07,0,0,1-8.05,8.06H417a41.81,41.81,0,1,0-82.9-7.68,41.19,41.19,0,0,0,.72,7.68h-14.9c7.67-18.75,12.12-46,12.12-75.31v-3.79Zm12.3,2.06,12.81,2.14A29.35,29.35,0,0,1,447.24,237H438.8a28.44,28.44,0,0,1-28-23.74Zm-5.07,58.22a29.81,29.81,0,1,1-29.81-29.81h0a29.84,29.84,0,0,1,29.8,29.81ZM106.18,229.68a41.86,41.86,0,0,0-41.81,41.81,41.19,41.19,0,0,0,.72,7.68H56.62a22.83,22.83,0,0,1-22.8-22.8V242.24H49.41a20.32,20.32,0,1,0,0-40.64H35.32a22.47,22.47,0,0,1,19.29-14.3L65,186.55a65.46,65.46,0,0,0,33-11.32c3-2,6.17-3.95,9.47-5.84l0,1.36a27.53,27.53,0,0,0,26.49,28.53l1.1,0h43.1c.54,32.65,9,62,22.51,79.86h-53.4a43,43,0,0,0,.72-7.68,41.83,41.83,0,0,0-41.8-41.8ZM136,271.49a29.81,29.81,0,1,1-29.81-29.81h0A29.84,29.84,0,0,1,136,271.49ZM33.81,213.6H49.4a8.32,8.32,0,0,1,0,16.64H33.81Zm133.65-68.85,9.64,42.56h-42a15.53,15.53,0,0,1-15.62-15.44c0-.23,0-.47,0-.71l.28-8.29c7.17-3.59,14.47-6.91,21.29-9.93a119.77,119.77,0,0,1,26.43-8.19ZM217,279.18c-15.62-13.26-26.16-44.69-26.79-79.86H320v4.55c0,30.06-5,58.41-13.25,75.31Zm-27.55-91.87-10-44.24,2.54-.23a120.24,120.24,0,0,0,42.62,27.49,6,6,0,0,0,4.1,0A116.92,116.92,0,0,0,259,153.55a152.32,152.32,0,0,1,49.73,33.8H189.41ZM470,271.12A29.9,29.9,0,0,1,440.13,301H421.29a6,6,0,0,0-4.72,2.3,51.62,51.62,0,0,1-81.34,0,6,6,0,0,0-4.72-2.3H151.57a6,6,0,0,0-4.72,2.3,51.62,51.62,0,0,1-81.34,0,6,6,0,0,0-4.72-2.3H56.62A44.68,44.68,0,0,1,12,256.37V209.61a44.32,44.32,0,0,1,41.09-44.06l10.34-.73a44,44,0,0,0,22.49-7.7c14.82-9.92,31.67-17.65,46.31-24.11A141.23,141.23,0,0,1,166,122.88a102.81,102.81,0,0,0,6.22,9,131.93,131.93,0,0,0-36,10.14c-14.57,6.44-31.29,14.24-44.81,23.29a53.15,53.15,0,0,1-27.26,9.34l-10.34.73a34.48,34.48,0,0,0-32,34.28v46.76a34.84,34.84,0,0,0,34.8,34.8h12.7a41.78,41.78,0,0,0,73.74,0H339a41.78,41.78,0,0,0,73.74,0h27.35a20.08,20.08,0,0,0,20.05-20.06V244.47a41.33,41.33,0,0,0-34.59-40.92L333.89,188.2a26.35,26.35,0,0,1-15.09-7.79,166.24,166.24,0,0,0-49.63-35.57q3.76-3.57,7.2-7.46a177,177,0,0,1,49.47,36.17,16.46,16.46,0,0,0,9.67,5l91.66,15.34A51.13,51.13,0,0,1,470,244.47ZM235.48,221a6,6,0,0,1-6,6H209.16a6,6,0,0,1,0-12h20.32a6,6,0,0,1,6,6Zm-129.3,32.11a18.43,18.43,0,1,0,18.43,18.43h0A18.45,18.45,0,0,0,106.18,253.06Zm0,24.86a6.43,6.43,0,1,1,6.43-6.43h0A6.43,6.43,0,0,1,106.18,277.92ZM375.9,253.06a18.43,18.43,0,1,0,18.43,18.43h0A18.45,18.45,0,0,0,375.9,253.06Zm0,24.86a6.43,6.43,0,1,1,6.43-6.43h0A6.43,6.43,0,0,1,375.9,277.92ZM224,146.26a6,6,0,0,0,5.28,0c23.37-11.46,48.52-36.54,48.52-64.51V52a6,6,0,0,0-4.25-5.74,199.82,199.82,0,0,1-43.83-19.13,6,6,0,0,0-6.16,0,199.82,199.82,0,0,1-43.83,19.13A6,6,0,0,0,175.48,52V81.75C175.43,109.73,200.58,134.8,224,146.26ZM187.48,56.42a208.67,208.67,0,0,0,39.16-17.17A208.67,208.67,0,0,0,265.8,56.42V81.75c0,20.9-19.29,41.71-39.16,52.38-19.88-10.67-39.16-31.49-39.16-52.38Z" transform="translate(0 0)"/></svg>