<svg xmlns="http://www.w3.org/2000/svg" width="508" height="476" viewBox="0 0 508 476"><title>icon-06</title><path d="M486,48H468V22a22,22,0,0,0-44,0V48H372V22a22,22,0,0,0-44,0V48H276V22a22,22,0,0,0-44,0V48H180V22a22,22,0,0,0-44,0V48H84V22a22,22,0,0,0-44,0V48H22A22,22,0,0,0,0,70v64a22,22,0,0,0,16,21.06V454a22,22,0,0,0,22,22H470a22,22,0,0,0,22-22V155.06A22,22,0,0,0,508,134V70A22,22,0,0,0,486,48ZM436,22a10,10,0,0,1,20,0V48H436Zm-96,0a10,10,0,0,1,20,0V48H340Zm-96,0a10,10,0,0,1,20,0V48H244Zm-96,0a10,10,0,0,1,20,0V48H148ZM52,22a10,10,0,0,1,20,0V48H52ZM480,454a10,10,0,0,1-10,10H38a10,10,0,0,1-10-10V156H480Zm16-320a10,10,0,0,1-10,10H22a10,10,0,0,1-10-10V70A10,10,0,0,1,22,60H72V86A10,10,0,0,1,62,96a6,6,0,0,0,0,12A22,22,0,0,0,84,86h0V60h84V86a10,10,0,0,1-10,10,6,6,0,0,0,0,12,22,22,0,0,0,22-22h0V60h84V86a10,10,0,0,1-10,10,6,6,0,0,0,0,12,22,22,0,0,0,22-22h0V60h84V86a10,10,0,0,1-10,10,6,6,0,0,0,0,12,22,22,0,0,0,22-22h0V60h84V86a10,10,0,0,1-10,10,6,6,0,0,0,0,12,22,22,0,0,0,22-22h0V60h18a10,10,0,0,1,10,10Z"/><path d="M106,408h14v10a22,22,0,0,0,22,22h24a22,22,0,0,0,22-22V408H320v10a22,22,0,0,0,22,22h24a22,22,0,0,0,22-22V408h14a18,18,0,0,0,2-35.8V330a46,46,0,0,0-30.65-43.31l-21-84A30,30,0,0,0,323.29,180H184.74a30,30,0,0,0-29.14,22.73l-20.95,84A46,46,0,0,0,104,330v42.2a18,18,0,0,0,2,35.8Zm70,10a10,10,0,0,1-10,10H142a10,10,0,0,1-10-10V408h44Zm200,0a10,10,0,0,1-10,10H342a10,10,0,0,1-10-10V408h44ZM167.27,205.63A18,18,0,0,1,184.74,192H323.26a18,18,0,0,1,17.47,13.6l19.61,78.49c-.8,0-1.55-.12-2.34-.12H347.94l-18.86-75.46a6,6,0,0,0-5.82-4.54H184.74a6,6,0,0,0-5.82,4.54L160.06,284H150c-.8,0-1.6.08-2.34.12ZM335.6,284H172.4l17-68H318.57ZM116,330a34,34,0,0,1,34-34H358a34,34,0,0,1,34,34v42H300V338a6,6,0,0,0-6-6H214a6,6,0,0,0-6,6v34H116Zm172,14v28H220V344ZM106,384H402a6,6,0,0,1,0,12H106a6,6,0,0,1,0-12Z"/><path d="M358,360a22,22,0,1,0-22-22h0A22,22,0,0,0,358,360Zm0-32a10,10,0,1,1-10,10A10,10,0,0,1,358,328Z"/><path d="M150,316a22,22,0,1,0,22,22,22,22,0,0,0-22-22Zm0,32a10,10,0,1,1,10-10A10,10,0,0,1,150,348Z"/></svg>